<svg width="21" height="22" viewBox="0 0 21 22" fill="none" xmlns="http://www.w3.org/2000/svg">
<path d="M19.9687 17.9538C19.4473 16.7188 18.6907 15.5971 17.741 14.651C16.7942 13.7022 15.6727 12.9457 14.4383 12.4234C14.4272 12.4178 14.4162 12.4151 14.4051 12.4095C16.127 11.1658 17.2463 9.13995 17.2463 6.85427C17.2463 3.06784 14.1785 0 10.392 0C6.6056 0 3.53776 3.06784 3.53776 6.85427C3.53776 9.13995 4.6571 11.1658 6.37896 12.4123C6.36791 12.4178 6.35685 12.4206 6.3458 12.4261C5.10761 12.9485 3.99655 13.6975 3.04303 14.6538C2.09424 15.6006 1.33777 16.7221 0.815396 17.9565C0.302216 19.165 0.0254463 20.4607 6.91121e-05 21.7734C-0.000668565 21.8029 0.00450538 21.8322 0.0152862 21.8597C0.0260671 21.8871 0.0422366 21.9122 0.0628421 21.9333C0.0834475 21.9544 0.108072 21.9712 0.135265 21.9827C0.162457 21.9941 0.191668 22 0.221175 22H1.87947C2.00107 22 2.09781 21.9033 2.10057 21.7844C2.15585 19.6508 3.01263 17.6525 4.5272 16.1379C6.09429 14.5709 8.17545 13.7085 10.392 13.7085C12.6086 13.7085 14.6898 14.5709 16.2569 16.1379C17.7714 17.6525 18.6282 19.6508 18.6835 21.7844C18.6863 21.906 18.783 22 18.9046 22H20.5629C20.5924 22 20.6216 21.9941 20.6488 21.9827C20.676 21.9712 20.7006 21.9544 20.7212 21.9333C20.7418 21.9122 20.758 21.8871 20.7688 21.8597C20.7796 21.8322 20.7847 21.8029 20.784 21.7734C20.7564 20.4523 20.4827 19.1671 19.9687 17.9538ZM10.392 11.608C9.12344 11.608 7.92947 11.1133 7.03122 10.2151C6.13298 9.31683 5.63826 8.12286 5.63826 6.85427C5.63826 5.58568 6.13298 4.39171 7.03122 3.49347C7.92947 2.59523 9.12344 2.1005 10.392 2.1005C11.6606 2.1005 12.8546 2.59523 13.7528 3.49347C14.6511 4.39171 15.1458 5.58568 15.1458 6.85427C15.1458 8.12286 14.6511 9.31683 13.7528 10.2151C12.8546 11.1133 11.6606 11.608 10.392 11.608Z" fill="#333333"/>
</svg>
