<svg width="20" height="18" viewBox="0 0 20 18" fill="none" xmlns="http://www.w3.org/2000/svg">
<path d="M18.0859 5.4922C17.0378 4.05402 15.5734 3.09306 13.9675 2.65943V2.66161C13.5949 2.24758 13.1743 1.86625 12.7036 1.52632C9.1365 -1.06676 4.12903 -0.275765 1.52505 3.29135C-0.573383 6.1895 -0.484042 10.0878 1.65579 12.8574L1.67323 15.7469C1.67323 15.8166 1.68412 15.8863 1.70591 15.9517C1.8214 16.3199 2.21363 16.5226 2.57971 16.4071L5.3384 15.5377C6.06839 15.797 6.82234 15.9451 7.57194 15.9865L7.56104 15.9953C9.50258 17.4095 12.0477 17.8344 14.3815 17.063L17.1511 17.9651C17.2208 17.9869 17.2927 18 17.3668 18C17.7525 18 18.0641 17.6884 18.0641 17.3027V14.3828C19.9839 11.7766 20.034 8.17462 18.0859 5.4922ZM5.64347 13.9905L5.38198 13.8816L3.22472 14.5571L3.20293 12.2909L3.0286 12.0948C1.18512 9.84596 1.06309 6.6057 2.7889 4.22835C4.88952 1.34763 8.91642 0.711348 11.7884 2.79017C14.6691 4.88425 15.3076 8.90461 13.2266 11.7679C11.4812 14.1627 8.3564 15.0474 5.64347 13.9905ZM16.6477 13.6201L16.4734 13.838L16.4952 16.1042L14.3597 15.3851L14.0982 15.4941C12.8779 15.9473 11.577 15.9844 10.372 15.6466L10.3677 15.6444C11.978 15.1498 13.438 14.1474 14.4904 12.7049C16.1552 10.4103 16.4255 7.52744 15.458 5.06947L15.471 5.07818C15.9722 5.43773 16.432 5.88661 16.822 6.4292C18.404 8.59954 18.3147 11.5543 16.6477 13.6201Z" fill="black"/>
</svg>
