<svg width="35" height="35" viewBox="0 0 35 35" fill="none" xmlns="http://www.w3.org/2000/svg">
<path d="M29.1666 17.5C29.1666 17.1132 29.013 16.7423 28.7395 16.4688C28.466 16.1953 28.0951 16.0417 27.7083 16.0417H5.83329C5.44652 16.0417 5.07559 16.1953 4.8021 16.4688C4.5286 16.7423 4.37496 17.1132 4.37496 17.5C4.37496 17.8868 4.5286 18.2577 4.8021 18.5312C5.07559 18.8047 5.44652 18.9583 5.83329 18.9583H27.7083C28.0951 18.9583 28.466 18.8047 28.7395 18.5312C29.013 18.2577 29.1666 17.8868 29.1666 17.5ZM17.5 27.7083C17.5 27.3216 17.3463 26.9506 17.0728 26.6771C16.7993 26.4037 16.4284 26.25 16.0416 26.25H5.83329C5.44652 26.25 5.07559 26.4037 4.8021 26.6771C4.5286 26.9506 4.37496 27.3216 4.37496 27.7083C4.37496 28.0951 4.5286 28.466 4.8021 28.7395C5.07559 29.013 5.44652 29.1667 5.83329 29.1667H16.0416C16.4284 29.1667 16.7993 29.013 17.0728 28.7395C17.3463 28.466 17.5 28.0951 17.5 27.7083ZM23.3333 7.29168C23.3333 6.9049 23.1796 6.53397 22.9062 6.26048C22.6327 5.98699 22.2617 5.83334 21.875 5.83334L5.83329 5.83334C5.44652 5.83334 5.07559 5.98699 4.8021 6.26048C4.5286 6.53397 4.37496 6.9049 4.37496 7.29168C4.37496 7.67845 4.5286 8.04938 4.8021 8.32287C5.07559 8.59636 5.44652 8.75001 5.83329 8.75001L21.875 8.75001C22.2617 8.75001 22.6327 8.59636 22.9062 8.32287C23.1796 8.04938 23.3333 7.67845 23.3333 7.29168Z" fill="white"/>
</svg>
