<svg width="22" height="24" viewBox="0 0 22 24" fill="none" xmlns="http://www.w3.org/2000/svg">
<path d="M21.4812 14.8869L19.8181 13.4651C19.8968 12.9826 19.9375 12.4901 19.9375 11.9975C19.9375 11.5049 19.8968 11.0123 19.8181 10.5299L21.4812 9.10803C21.6066 9.00065 21.6964 8.85762 21.7386 8.69797C21.7808 8.53832 21.7734 8.36961 21.7173 8.21428L21.6945 8.14827C21.2366 6.86865 20.5511 5.68242 19.6709 4.6469L19.6251 4.59358C19.5184 4.46803 19.3761 4.37778 19.217 4.33472C19.0579 4.29166 18.8895 4.29781 18.7339 4.35237L16.6697 5.08616C15.908 4.46155 15.0574 3.96897 14.1382 3.62366L13.7396 1.46545C13.7095 1.30306 13.6308 1.15366 13.5137 1.03711C13.3967 0.920554 13.247 0.84236 13.0845 0.812915L13.016 0.80022C11.6931 0.561548 10.3017 0.561548 8.97886 0.80022L8.91031 0.812915C8.7478 0.84236 8.59809 0.920554 8.48109 1.03711C8.36408 1.15366 8.2853 1.30306 8.25523 1.46545L7.85406 3.63381C6.94225 3.9792 6.09313 4.47152 5.34039 5.09124L3.26089 4.35237C3.10542 4.29738 2.93689 4.291 2.7777 4.33409C2.61851 4.37717 2.4762 4.46768 2.36968 4.59358L2.32398 4.6469C1.44482 5.68315 0.759348 6.86918 0.300347 8.14827L0.277495 8.21428C0.163238 8.53167 0.257183 8.88713 0.513628 9.10803L2.19703 10.5451C2.11832 11.0225 2.08023 11.51 2.08023 11.9949C2.08023 12.4824 2.11832 12.9699 2.19703 13.4448L0.513628 14.8819C0.388188 14.9892 0.298408 15.1323 0.256228 15.2919C0.214048 15.4516 0.221466 15.6203 0.277495 15.7756L0.300347 15.8416C0.759917 17.1213 1.44039 18.302 2.32398 19.343L2.36968 19.3963C2.47646 19.5219 2.61877 19.6121 2.77787 19.6552C2.93696 19.6982 3.10537 19.6921 3.26089 19.6375L5.34039 18.8987C6.09703 19.5207 6.94253 20.0133 7.85406 20.3561L8.25523 22.5244C8.2853 22.6868 8.36408 22.8362 8.48109 22.9528C8.59809 23.0693 8.7478 23.1475 8.91031 23.177L8.97886 23.1897C10.3139 23.4296 11.681 23.4296 13.016 23.1897L13.0845 23.177C13.247 23.1475 13.3967 23.0693 13.5137 22.9528C13.6308 22.8362 13.7095 22.6868 13.7396 22.5244L14.1382 20.3662C15.057 20.0218 15.9124 19.5276 16.6697 18.9037L18.7339 19.6375C18.8894 19.6925 19.0579 19.6989 19.2171 19.6558C19.3763 19.6127 19.5186 19.5222 19.6251 19.3963L19.6709 19.343C20.5544 18.2994 21.2349 17.1213 21.6945 15.8416L21.7173 15.7756C21.8316 15.4633 21.7376 15.1078 21.4812 14.8869ZM18.0154 10.8295C18.0789 11.2129 18.1119 11.6065 18.1119 12C18.1119 12.3936 18.0789 12.7871 18.0154 13.1705L17.8478 14.1887L19.7445 15.8112C19.457 16.4736 19.094 17.1006 18.6628 17.6799L16.3066 16.8446L15.5093 17.4996C14.9025 17.9973 14.2271 18.3883 13.4959 18.6625L12.5285 19.0256L12.074 21.4885C11.3569 21.5698 10.6329 21.5698 9.91577 21.4885L9.46128 19.0205L8.50152 18.6524C7.77788 18.3782 7.10503 17.9871 6.50328 17.492L5.70601 16.8344L3.33453 17.6774C2.90289 17.0959 2.54234 16.4688 2.25289 15.8086L4.16988 14.1709L4.00484 13.1553C3.9439 12.777 3.91089 12.386 3.91089 12C3.91089 11.6115 3.94136 11.2231 4.00484 10.8448L4.16988 9.82913L2.25289 8.19143C2.5398 7.52874 2.90289 6.90413 3.33453 6.32268L5.70601 7.16565L6.50328 6.50803C7.10503 6.01292 7.77788 5.6219 8.50152 5.34768L9.46382 4.9846L9.91831 2.51663C10.6318 2.43538 11.3605 2.43538 12.0765 2.51663L12.531 4.97952L13.4984 5.3426C14.2271 5.61682 14.905 6.00784 15.5119 6.50549L16.3091 7.16057L18.6654 6.32522C19.097 6.90667 19.4576 7.53381 19.747 8.19397L17.8503 9.81643L18.0154 10.8295ZM11 7.27737C8.53199 7.27737 6.53121 9.27815 6.53121 11.7461C6.53121 14.2141 8.53199 16.2149 11 16.2149C13.4679 16.2149 15.4687 14.2141 15.4687 11.7461C15.4687 9.27815 13.4679 7.27737 11 7.27737ZM13.0109 13.7571C12.7471 14.0216 12.4337 14.2313 12.0886 14.3742C11.7435 14.5172 11.3735 14.5905 11 14.5899C10.2408 14.5899 9.5273 14.2928 8.98902 13.7571C8.72451 13.4933 8.51476 13.1799 8.37183 12.8347C8.2289 12.4896 8.15562 12.1197 8.15621 11.7461C8.15621 10.9869 8.45327 10.2735 8.98902 9.73518C9.5273 9.1969 10.2408 8.90237 11 8.90237C11.7591 8.90237 12.4726 9.1969 13.0109 9.73518C13.2754 9.99893 13.4852 10.3124 13.6281 10.6575C13.771 11.0026 13.8443 11.3726 13.8437 11.7461C13.8437 12.5053 13.5466 13.2188 13.0109 13.7571Z" fill="#333333"/>
</svg>
