<svg width="26" height="20" viewBox="0 0 26 20" fill="none" xmlns="http://www.w3.org/2000/svg">
<path d="M24.5455 1.81818H20V0.227273C20 0.102273 19.8977 0 19.7727 0H18.1818C18.0568 0 17.9545 0.102273 17.9545 0.227273V1.81818H13.75V0.227273C13.75 0.102273 13.6477 0 13.5227 0H11.9318C11.8068 0 11.7045 0.102273 11.7045 0.227273V1.81818H7.5V0.227273C7.5 0.102273 7.39773 0 7.27273 0H5.68182C5.55682 0 5.45455 0.102273 5.45455 0.227273V1.81818H0.909091C0.40625 1.81818 0 2.22443 0 2.72727V19.0909C0 19.5938 0.40625 20 0.909091 20H24.5455C25.0483 20 25.4545 19.5938 25.4545 19.0909V2.72727C25.4545 2.22443 25.0483 1.81818 24.5455 1.81818ZM23.4091 17.9545H2.04545V3.86364H5.45455V5.45455C5.45455 5.57955 5.55682 5.68182 5.68182 5.68182H7.27273C7.39773 5.68182 7.5 5.57955 7.5 5.45455V3.86364H11.7045V5.45455C11.7045 5.57955 11.8068 5.68182 11.9318 5.68182H13.5227C13.6477 5.68182 13.75 5.57955 13.75 5.45455V3.86364H17.9545V5.45455C17.9545 5.57955 18.0568 5.68182 18.1818 5.68182H19.7727C19.8977 5.68182 20 5.57955 20 5.45455V3.86364H23.4091V17.9545ZM10 9.54545H4.77273C4.64773 9.54545 4.54545 9.64773 4.54545 9.77273V11.1364C4.54545 11.2614 4.64773 11.3636 4.77273 11.3636H10C10.125 11.3636 10.2273 11.2614 10.2273 11.1364V9.77273C10.2273 9.64773 10.125 9.54545 10 9.54545ZM10 13.4091H4.77273C4.64773 13.4091 4.54545 13.5114 4.54545 13.6364V15C4.54545 15.125 4.64773 15.2273 4.77273 15.2273H10C10.125 15.2273 10.2273 15.125 10.2273 15V13.6364C10.2273 13.5114 10.125 13.4091 10 13.4091ZM18.7557 8.36932L15.8125 12.4517L14.3125 10.375C14.2273 10.2557 14.0909 10.1875 13.946 10.1875H12.3864C12.2017 10.1875 12.0938 10.3977 12.2017 10.5483L15.4432 15.0426C15.485 15.1007 15.5401 15.148 15.6038 15.1806C15.6675 15.2132 15.7381 15.2303 15.8097 15.2303C15.8812 15.2303 15.9518 15.2132 16.0155 15.1806C16.0792 15.148 16.1343 15.1007 16.1761 15.0426L20.8636 8.54545C20.9716 8.39489 20.8636 8.18466 20.679 8.18466H19.1193C18.9773 8.18182 18.8409 8.25284 18.7557 8.36932Z" fill="#333333"/>
</svg>
