<svg width="18" height="19" viewBox="0 0 18 19" fill="none" xmlns="http://www.w3.org/2000/svg">
<path d="M8.99998 1.00005C10.8149 1.00008 12.5873 1.5488 14.0848 2.5742C15.5822 3.5996 16.7347 5.05376 17.3909 6.74585C18.0471 8.43793 18.1764 10.2889 17.7619 12.0558C17.3474 13.8227 16.4083 15.423 15.068 16.6466C13.7277 17.8703 12.0488 18.6602 10.2515 18.9126C8.45427 19.165 6.62271 18.8681 4.99719 18.061C3.37167 17.2539 2.02816 15.9741 1.14295 14.3898C0.257755 12.8054 -0.127768 10.9904 0.0369829 9.18305C0.0488019 9.05225 0.0862675 8.92506 0.147241 8.80875C0.208214 8.69243 0.2915 8.58926 0.392344 8.50513C0.493189 8.421 0.609616 8.35756 0.73498 8.31842C0.860343 8.27929 0.992187 8.26523 1.12298 8.27705C1.25378 8.28887 1.38097 8.32633 1.49729 8.38731C1.6136 8.44828 1.71677 8.53157 1.8009 8.63241C1.88503 8.73325 1.94847 8.84968 1.98761 8.97505C2.02674 9.10041 2.0408 9.23225 2.02898 9.36305C1.93283 10.3857 2.06417 11.417 2.41358 12.383C2.76299 13.3489 3.32182 14.2256 4.04998 14.9501C4.42498 15.3251 4.84198 15.657 5.29198 15.938C6.40649 16.6338 7.69432 17.0019 9.00818 17.0001C10.322 16.9984 11.6089 16.6269 12.7215 15.9282C13.8342 15.2295 14.7278 14.2317 15.3 13.049C15.8723 11.8664 16.1002 10.5465 15.9576 9.24039C15.815 7.9343 15.3076 6.69469 14.4937 5.66336C13.6797 4.63203 12.5919 3.8506 11.3546 3.40844C10.1174 2.96628 8.78072 2.88125 7.49744 3.16307C6.21416 3.44489 5.0361 4.08217 4.09798 5.00205L5.49798 5.00305C5.75432 5.0013 6.00154 5.09805 6.18859 5.27334C6.37564 5.44862 6.48824 5.68904 6.50313 5.94495C6.51801 6.20086 6.43406 6.45272 6.26859 6.6485C6.10313 6.84429 5.86879 6.96906 5.61398 6.99705L5.49798 7.00305H1.49598C1.25105 7.00302 1.01465 6.91309 0.831611 6.75033C0.648576 6.58757 0.53164 6.3633 0.502983 6.12005L0.495983 6.00305V2.00305C0.494232 1.74671 0.590987 1.49949 0.766269 1.31244C0.941551 1.12539 1.18197 1.01279 1.43788 0.997905C1.69379 0.983018 1.94565 1.06698 2.14144 1.23244C2.33723 1.3979 2.462 1.63224 2.48998 1.88705L2.49598 2.00405V3.77805C3.33571 2.899 4.34512 2.19954 5.46309 1.72204C6.58105 1.24453 7.78431 0.998907 8.99998 1.00005ZM8.24998 5.00005C8.43122 5.00006 8.60632 5.06569 8.74291 5.18482C8.8795 5.30394 8.96833 5.4685 8.99298 5.64805L8.99998 5.75005V10H11.25C11.44 10.0001 11.6229 10.0723 11.7618 10.202C11.9006 10.3318 11.9851 10.5093 11.998 10.6989C12.011 10.8885 11.9515 11.0759 11.8316 11.2233C11.7116 11.3708 11.5402 11.4671 11.352 11.493L11.25 11.5H8.24998C8.06875 11.5 7.89364 11.4344 7.75705 11.3153C7.62046 11.1962 7.53163 11.0316 7.50698 10.852L7.49998 10.75V5.75005C7.49998 5.55114 7.579 5.36037 7.71965 5.21972C7.86031 5.07907 8.05107 5.00005 8.24998 5.00005Z" fill="#E98024"/>
</svg>
