<svg width="20" height="20" viewBox="0 0 20 20" fill="none" xmlns="http://www.w3.org/2000/svg">
<path d="M19.3349 9.8496L11.0333 1.55234L10.4769 0.995892C10.3501 0.869943 10.1787 0.799255 9.99994 0.799255C9.82123 0.799255 9.64977 0.869943 9.52299 0.995892L0.664982 9.8496C0.535068 9.97901 0.432395 10.1331 0.363023 10.3029C0.293652 10.4726 0.258987 10.6545 0.261075 10.8379C0.269669 11.5941 0.899161 12.1978 1.65541 12.1978H2.5685V19.1953H17.4314V12.1978H18.3638C18.7312 12.1978 19.0771 12.0539 19.3371 11.7939C19.4651 11.6663 19.5665 11.5146 19.6354 11.3476C19.7044 11.1805 19.7395 11.0014 19.7388 10.8207C19.7388 10.4555 19.5949 10.1096 19.3349 9.8496ZM11.2031 17.6484H8.79682V13.2656H11.2031V17.6484ZM15.8845 10.651V17.6484H12.5781V12.75C12.5781 12.2752 12.1935 11.8906 11.7187 11.8906H8.28119C7.80639 11.8906 7.42182 12.2752 7.42182 12.75V17.6484H4.11537V10.651H2.05287L10.0021 2.7082L10.4984 3.20449L17.9492 10.651H15.8845Z" fill="white"/>
</svg>
