<svg width="24" height="24" viewBox="0 0 24 24" fill="none" xmlns="http://www.w3.org/2000/svg">
<path d="M3.42859 13.9036C4.25859 14.5518 5.50559 14.9303 6.92859 14.9132C8.35159 14.9303 9.59859 14.5518 10.4286 13.9036C11.2586 13.2555 12.5056 12.877 13.9286 12.8941C15.3516 12.877 16.5986 13.2555 17.4286 13.9036" stroke="white" stroke-width="2" stroke-linecap="round" stroke-linejoin="round"/>
<path d="M8.42857 2.79883C8.11207 3.02816 7.85564 3.33183 7.68141 3.6836C7.50719 4.03537 7.42041 4.42467 7.42857 4.81788C7.42041 5.21108 7.50719 5.60038 7.68141 5.95215C7.85564 6.30392 8.11207 6.60759 8.42857 6.83692" stroke="white" stroke-width="2" stroke-linecap="round" stroke-linejoin="round"/>
<path d="M12.4286 2.79883C12.1121 3.02816 11.8557 3.33183 11.6815 3.6836C11.5072 4.03537 11.4205 4.42467 11.4286 4.81788C11.4205 5.21108 11.5072 5.60038 11.6815 5.95215C11.8557 6.30392 12.1121 6.60759 12.4286 6.83692" stroke="white" stroke-width="2" stroke-linecap="round" stroke-linejoin="round"/>
<path d="M3.42859 9.86548H17.4286V14.9131C17.4286 16.5196 16.7964 18.0602 15.6712 19.1961C14.546 20.3321 13.0199 20.9702 11.4286 20.9702H9.42859C7.83729 20.9702 6.31117 20.3321 5.18595 19.1961C4.06073 18.0602 3.42859 16.5196 3.42859 14.9131V9.86548Z" stroke="white" stroke-width="2" stroke-linecap="round" stroke-linejoin="round"/>
<path d="M17.1746 16.6555C17.6212 16.8625 18.1113 16.9555 18.6019 16.9265C19.0925 16.8974 19.5684 16.7472 19.988 16.4889C20.4076 16.2306 20.7579 15.8723 21.0081 15.4453C21.2584 15.0184 21.4009 14.5359 21.4231 14.0403C21.4454 13.5448 21.3468 13.0512 21.1358 12.6032C20.9249 12.1551 20.6082 11.7662 20.2135 11.4707C19.8188 11.1751 19.3583 10.982 18.8723 10.9082C18.3864 10.8344 17.8899 10.8823 17.4266 11.0476" stroke="white" stroke-width="2" stroke-linecap="round" stroke-linejoin="round"/>
</svg>
