<svg width="24" height="24" viewBox="0 0 24 24" fill="none" xmlns="http://www.w3.org/2000/svg">
<path d="M9.46992 15.28C9.27992 15.28 9.08992 15.21 8.93992 15.06C8.11992 14.24 7.66992 13.15 7.66992 12C7.66992 9.60998 9.60992 7.66998 11.9999 7.66998C13.1499 7.66998 14.2399 8.11998 15.0599 8.93998C15.1999 9.07998 15.2799 9.26998 15.2799 9.46998C15.2799 9.66998 15.1999 9.85998 15.0599 9.99998L9.99992 15.06C9.84992 15.21 9.65992 15.28 9.46992 15.28ZM11.9999 9.16998C10.4399 9.16998 9.16992 10.44 9.16992 12C9.16992 12.5 9.29992 12.98 9.53992 13.4L13.3999 9.53998C12.9799 9.29998 12.4999 9.16998 11.9999 9.16998Z" fill="#292D32"/>
<path d="M5.60009 18.51C5.43009 18.51 5.25009 18.45 5.11009 18.33C4.04009 17.42 3.08009 16.3 2.26009 15C1.20009 13.35 1.20009 10.66 2.26009 8.99998C4.70009 5.17998 8.25009 2.97998 12.0001 2.97998C14.2001 2.97998 16.3701 3.73998 18.2701 5.16998C18.6001 5.41998 18.6701 5.88998 18.4201 6.21998C18.1701 6.54998 17.7001 6.61998 17.3701 6.36998C15.7301 5.12998 13.8701 4.47998 12.0001 4.47998C8.77009 4.47998 5.68009 6.41998 3.52009 9.80998C2.77009 10.98 2.77009 13.02 3.52009 14.19C4.27009 15.36 5.13009 16.37 6.08009 17.19C6.39009 17.46 6.43009 17.93 6.16009 18.25C6.02009 18.42 5.81009 18.51 5.60009 18.51Z" fill="#292D32"/>
<path d="M12.0001 21.02C10.6701 21.02 9.37006 20.75 8.12006 20.22C7.74006 20.06 7.56006 19.62 7.72006 19.24C7.88006 18.86 8.32006 18.68 8.70006 18.84C9.76006 19.29 10.8701 19.52 11.9901 19.52C15.2201 19.52 18.3101 17.58 20.4701 14.19C21.2201 13.02 21.2201 10.98 20.4701 9.81C20.1601 9.32 19.8201 8.85 19.4601 8.41C19.2001 8.09 19.2501 7.62 19.5701 7.35C19.8901 7.09 20.3601 7.13 20.6301 7.46C21.0201 7.94 21.4001 8.46 21.7401 9C22.8001 10.65 22.8001 13.34 21.7401 15C19.3001 18.82 15.7501 21.02 12.0001 21.02Z" fill="#292D32"/>
<path d="M12.6901 16.27C12.3401 16.27 12.0201 16.02 11.9501 15.66C11.8701 15.25 12.1401 14.86 12.5501 14.79C13.6501 14.59 14.5701 13.67 14.7701 12.57C14.8501 12.16 15.2401 11.9 15.6501 11.97C16.0601 12.05 16.3301 12.44 16.2501 12.85C15.9301 14.58 14.5501 15.95 12.8301 16.27C12.7801 16.26 12.7401 16.27 12.6901 16.27Z" fill="#292D32"/>
<path d="M1.99994 22.75C1.80994 22.75 1.61994 22.68 1.46994 22.53C1.17994 22.24 1.17994 21.76 1.46994 21.47L8.93994 14C9.22994 13.71 9.70994 13.71 9.99994 14C10.2899 14.29 10.2899 14.77 9.99994 15.06L2.52994 22.53C2.37994 22.68 2.18994 22.75 1.99994 22.75Z" fill="#292D32"/>
<path d="M14.53 10.22C14.34 10.22 14.15 10.15 14 10C13.71 9.71 13.71 9.23 14 8.94L21.47 1.47C21.76 1.18 22.24 1.18 22.53 1.47C22.82 1.76 22.82 2.24 22.53 2.53L15.06 10C14.91 10.15 14.72 10.22 14.53 10.22Z" fill="#292D32"/>
</svg>
