<svg width="24" height="24" viewBox="0 0 24 24" fill="none" xmlns="http://www.w3.org/2000/svg">
<path d="M12 22C17.5228 22 22 17.5228 22 12C22 6.47715 17.5228 2 12 2C6.47715 2 2 6.47715 2 12C2 17.5228 6.47715 22 12 22Z" stroke="#292D32" stroke-width="1.5" stroke-linecap="round" stroke-linejoin="round"/>
<path d="M12.3301 17.4501C12.1501 17.5101 11.8401 17.5101 11.6601 17.4501C10.1001 16.9201 6.6001 14.6901 6.6001 10.9101C6.6001 9.24013 7.9401 7.89014 9.6001 7.89014C10.5801 7.89014 11.4501 8.36013 12.0001 9.10013C12.5401 8.37013 13.4201 7.89014 14.4001 7.89014C16.0601 7.89014 17.4001 9.24013 17.4001 10.9101C17.4001 14.6901 13.9001 16.9201 12.3301 17.4501Z" stroke="#292D32" stroke-width="1.5" stroke-linecap="round" stroke-linejoin="round"/>
</svg>
