<svg width="24" height="24" viewBox="0 0 22 22" fill="none" xmlns="http://www.w3.org/2000/svg">
<path d="M10.9106 5.48254C10.3667 5.48254 9.83506 5.64383 9.38283 5.946C8.93059 6.24818 8.57812 6.67767 8.36998 7.18016C8.16184 7.68266 8.10738 8.23559 8.21349 8.76904C8.3196 9.30249 8.58151 9.79249 8.9661 10.1771C9.3507 10.5617 9.8407 10.8236 10.3741 10.9297C10.9076 11.0358 11.4605 10.9814 11.963 10.7732C12.4655 10.5651 12.895 10.2126 13.1972 9.76036C13.4994 9.30813 13.6606 8.77644 13.6606 8.23254C13.6598 7.50345 13.3698 6.80446 12.8543 6.28892C12.3387 5.77337 11.6397 5.48337 10.9106 5.48254V5.48254ZM10.9106 9.60754C10.6387 9.60754 10.3729 9.5269 10.1467 9.37581C9.92062 9.22473 9.74438 9.00998 9.64031 8.75873C9.53624 8.50749 9.50901 8.23102 9.56207 7.96429C9.61512 7.69757 9.74608 7.45257 9.93837 7.26027C10.1307 7.06797 10.3757 6.93702 10.6424 6.88396C10.9091 6.83091 11.1856 6.85814 11.4368 6.96221C11.6881 7.06628 11.9028 7.24252 12.0539 7.46863C12.205 7.69475 12.2856 7.96059 12.2856 8.23254C12.2852 8.59709 12.1402 8.94658 11.8825 9.20435C11.6247 9.46212 11.2752 9.60712 10.9106 9.60754V9.60754Z" fill="black"/>
<path d="M16.1952 2.94405C14.8886 1.63782 13.1445 0.861862 11.2995 0.765945C9.45442 0.670027 7.63925 1.26095 6.20428 2.42465C4.76932 3.58836 3.81627 5.24236 3.52909 7.06743C3.24191 8.8925 3.64095 10.7593 4.64919 12.3074L9.84441 20.283C9.96003 20.4604 10.1181 20.6063 10.3043 20.7072C10.4905 20.8081 10.699 20.861 10.9108 20.861C11.1226 20.861 11.3311 20.8081 11.5173 20.7072C11.7035 20.6063 11.8616 20.4604 11.9772 20.283L17.1726 12.3074C18.1081 10.8713 18.5215 9.15719 18.3436 7.45248C18.1656 5.74776 17.4071 4.15602 16.1952 2.94405V2.94405ZM16.0205 11.5569L10.9108 19.4008L5.8011 11.5569C4.23703 9.15583 4.57249 5.94262 6.59873 3.9163C7.16499 3.35002 7.83725 2.90082 8.57712 2.59435C9.31699 2.28788 10.11 2.13014 10.9108 2.13014C11.7116 2.13014 12.5046 2.28788 13.2445 2.59435C13.9844 2.90082 14.6566 3.35002 15.2229 3.9163C17.2491 5.94262 17.5845 9.15583 16.0205 11.5569Z" fill="black"/>
</svg>
