<svg width="20" height="20" viewBox="0 0 20 20" fill="none" xmlns="http://www.w3.org/2000/svg">
<path d="M10.0063 19.9915C15.5055 19.9915 19.9634 15.5335 19.9634 10.0343C19.9634 4.53513 15.5055 0.0771484 10.0063 0.0771484C4.50706 0.0771484 0.0490723 4.53513 0.0490723 10.0343C0.0490723 15.5335 4.50706 19.9915 10.0063 19.9915Z" fill="#F5EB35"/>
<path d="M5.71279 1.06162C2.36592 2.66693 0.050293 6.07725 0.050293 10.0347C0.050293 14.5651 3.07811 18.3816 7.21842 19.5882C3.79248 16.2947 1.24967 7.35381 5.71342 1.06006" fill="#405866"/>
<path d="M9.1685 19.4444C10.7601 19.4444 12.0504 18.1542 12.0504 16.5625C12.0504 14.9709 10.7601 13.6807 9.1685 13.6807C7.57688 13.6807 6.28662 14.9709 6.28662 16.5625C6.28662 18.1542 7.57688 19.4444 9.1685 19.4444Z" fill="#E0CF35"/>
<path d="M13.1004 7.64909C13.0916 7.96782 12.9588 8.27054 12.7302 8.49287C12.5016 8.71519 12.1954 8.83958 11.8765 8.83958C11.5576 8.83958 11.2514 8.71519 11.0228 8.49287C10.7942 8.27054 10.6614 7.96782 10.6526 7.64909C10.6577 7.32787 10.7889 7.02155 11.0179 6.79621C11.2469 6.57087 11.5552 6.44458 11.8765 6.44458C12.1977 6.44458 12.5061 6.57087 12.7351 6.79621C12.9641 7.02155 13.0953 7.32787 13.1004 7.64909" fill="#E0CF35"/>
<path d="M1.87435 12.6155C2.53778 12.6155 3.0756 12.0777 3.0756 11.4143C3.0756 10.7508 2.53778 10.213 1.87435 10.213C1.21091 10.213 0.673096 10.7508 0.673096 11.4143C0.673096 12.0777 1.21091 12.6155 1.87435 12.6155Z" fill="#4F6977"/>
<path d="M1.9825 6.59525C2.36116 6.59525 2.66813 6.28828 2.66813 5.90962C2.66813 5.53096 2.36116 5.224 1.9825 5.224C1.60384 5.224 1.29688 5.53096 1.29688 5.90962C1.29688 6.28828 1.60384 6.59525 1.9825 6.59525Z" fill="#4F6977"/>
<path d="M5.48772 7.21188C6.07987 7.21188 6.5599 6.73185 6.5599 6.13969C6.5599 5.54754 6.07987 5.0675 5.48772 5.0675C4.89556 5.0675 4.41553 5.54754 4.41553 6.13969C4.41553 6.73185 4.89556 7.21188 5.48772 7.21188Z" fill="#E0CF35"/>
<path d="M14.9201 3.45936C14.9201 3.65764 14.881 3.85397 14.8051 4.03714C14.7292 4.22031 14.6179 4.38672 14.4776 4.52689C14.3374 4.66705 14.1709 4.77821 13.9877 4.85402C13.8045 4.92984 13.6081 4.96881 13.4098 4.96873C13.1112 4.96867 12.8192 4.88004 12.5709 4.71406C12.3227 4.54807 12.1292 4.31218 12.0149 4.03622C11.9007 3.76026 11.8709 3.45663 11.9292 3.16372C11.9876 2.87082 12.1315 2.60179 12.3427 2.39067C12.554 2.17955 12.8231 2.03581 13.1161 1.97765C13.409 1.91948 13.7126 1.94949 13.9885 2.06388C14.2644 2.17828 14.5002 2.37191 14.666 2.62031C14.8318 2.8687 14.9203 3.16069 14.9201 3.45936" fill="#E0CF35"/>
</svg>
