<svg width="20" height="20" viewBox="0 0 20 20" fill="none" xmlns="http://www.w3.org/2000/svg">
<path d="M7.77778 1.11111C7.77778 1.11111 7.77778 0 8.88889 0C10 0 10 1.11111 10 1.11111V2.22222C10 2.22222 10 3.33333 8.88889 3.33333C7.77778 3.33333 7.77778 2.22222 7.77778 2.22222V1.11111ZM16.6667 7.77778C16.6667 7.77778 17.7778 7.77778 17.7778 8.88889C17.7778 10 16.6667 10 16.6667 10H15.5556C15.5556 10 14.4444 10 14.4444 8.88889C14.4444 7.77778 15.5556 7.77778 15.5556 7.77778H16.6667ZM2.22222 7.77778C2.22222 7.77778 3.33333 7.77778 3.33333 8.88889C3.33333 10 2.22222 10 2.22222 10H1.11111C1.11111 10 0 10 0 8.88889C0 7.77778 1.11111 7.77778 1.11111 7.77778H2.22222ZM4.37333 3.35722C4.37333 3.35722 5.15889 4.14278 4.37333 4.92833C3.58778 5.71389 2.80222 4.92833 2.80222 4.92833L2.01611 4.14333C2.01611 4.14333 1.23056 3.35778 2.01611 2.57167C2.80222 1.78611 3.58778 2.57167 3.58778 2.57167L4.37333 3.35722V3.35722ZM14.9761 4.92833C14.9761 4.92833 14.1906 5.71389 13.405 4.92833C12.6194 4.14278 13.405 3.35722 13.405 3.35722L14.1906 2.57167C14.1906 2.57167 14.9761 1.78611 15.7617 2.57167C16.5472 3.35722 15.7617 4.14278 15.7617 4.14278L14.9761 4.92833Z" fill="#FFAC33"/>
<path d="M8.88892 13.8889C11.6503 13.8889 13.8889 11.6503 13.8889 8.88892C13.8889 6.12749 11.6503 3.88892 8.88892 3.88892C6.12749 3.88892 3.88892 6.12749 3.88892 8.88892C3.88892 11.6503 6.12749 13.8889 8.88892 13.8889Z" fill="#FFAC33"/>
<path d="M15.5556 11.1111C15.0972 11.1111 14.6556 11.1806 14.2394 11.3095C13.9928 10.6026 13.5325 9.98996 12.9222 9.55629C12.312 9.12261 11.582 8.88939 10.8333 8.88892C9.14222 8.88892 7.72667 10.0534 7.33389 11.6228C6.90326 11.2925 6.37606 11.1127 5.83333 11.1111C5.17029 11.1111 4.53441 11.3745 4.06557 11.8434C3.59673 12.3122 3.33333 12.9481 3.33333 13.6111C3.33333 13.9467 3.40167 14.2656 3.52167 14.5578C3.28002 14.4863 3.02975 14.4482 2.77778 14.4445C1.24333 14.4445 0 15.6878 0 17.2222C0 18.7567 1.24333 20 2.77778 20H15.5556C16.7343 20 17.8648 19.5318 18.6983 18.6983C19.5317 17.8648 20 16.7343 20 15.5556C20 14.3768 19.5317 13.2464 18.6983 12.4129C17.8648 11.5794 16.7343 11.1111 15.5556 11.1111V11.1111Z" fill="#E1E8ED"/>
</svg>
