<svg width="23" height="15" viewBox="0 0 23 15" fill="none" xmlns="http://www.w3.org/2000/svg">
<path d="M22.5158 4.29409L18.1322 0.294092C18.0301 0.200853 17.9088 0.126893 17.7752 0.0764322C17.6417 0.0259719 17.4987 0 17.3542 0C17.0623 0 16.7824 0.105788 16.5761 0.294092C16.3697 0.482395 16.2538 0.73779 16.2538 1.00409C16.2538 1.27039 16.3697 1.52579 16.5761 1.71409L19.0966 4.00409H6.39525C6.1046 4.00409 5.82586 4.10945 5.62034 4.29698C5.41482 4.48452 5.29936 4.73887 5.29936 5.00409C5.29936 5.26931 5.41482 5.52366 5.62034 5.7112C5.82586 5.89873 6.1046 6.00409 6.39525 6.00409H21.7377C21.9541 6.00311 22.1653 5.9437 22.3447 5.83337C22.5241 5.72304 22.6637 5.56671 22.7459 5.38409C22.8299 5.20198 22.8528 5.00127 22.8118 4.80728C22.7709 4.61329 22.6679 4.43471 22.5158 4.29409ZM17.3542 8.00409H2.01169C1.79533 8.00508 1.58414 8.06448 1.40472 8.17481C1.2253 8.28514 1.08568 8.44147 1.00347 8.62409C0.919547 8.8062 0.896618 9.00691 0.937576 9.2009C0.978534 9.39489 1.08154 9.57347 1.23361 9.71409L5.61717 13.7141C5.71904 13.8078 5.84025 13.8822 5.9738 13.933C6.10734 13.9838 6.25058 14.0099 6.39525 14.0099C6.53992 14.0099 6.68316 13.9838 6.8167 13.933C6.95025 13.8822 7.07145 13.8078 7.17333 13.7141C7.27605 13.6211 7.35758 13.5105 7.41321 13.3887C7.46885 13.2668 7.49749 13.1361 7.49749 13.0041C7.49749 12.8721 7.46885 12.7414 7.41321 12.6195C7.35758 12.4977 7.27605 12.3871 7.17333 12.2941L4.65278 10.0041H17.3542C17.6448 10.0041 17.9235 9.89873 18.1291 9.7112C18.3346 9.52366 18.45 9.26931 18.45 9.00409C18.45 8.73887 18.3346 8.48452 18.1291 8.29698C17.9235 8.10945 17.6448 8.00409 17.3542 8.00409Z" fill="#E98024"/>
</svg>
