<svg width="19" height="16" viewBox="0 0 19 16" fill="none" xmlns="http://www.w3.org/2000/svg">
<path d="M2.8125 2.27083C2.56938 2.27083 2.33623 2.36741 2.16432 2.53932C1.99241 2.71123 1.89583 2.94439 1.89583 3.1875V5.01717C1.89858 5.02633 1.90958 5.05108 1.94533 5.09233C2.0095 5.1675 2.12225 5.25367 2.268 5.32517C3.03525 5.701 3.72917 6.48383 3.72917 7.77083C3.72917 9.05783 3.03525 9.83975 2.268 10.2165C2.14652 10.2727 2.03698 10.3518 1.94533 10.4493C1.9243 10.4711 1.90751 10.4966 1.89583 10.5245V12.3542C1.89583 12.5973 1.99241 12.8304 2.16432 13.0023C2.33623 13.1743 2.56938 13.2708 2.8125 13.2708H11.0625V11.4375C11.0625 11.1944 11.1591 10.9612 11.331 10.7893C11.5029 10.6174 11.7361 10.5208 11.9792 10.5208C12.2223 10.5208 12.4554 10.6174 12.6273 10.7893C12.7993 10.9612 12.8958 11.1944 12.8958 11.4375V13.2708H15.6458C15.8889 13.2708 16.1221 13.1743 16.294 13.0023C16.4659 12.8304 16.5625 12.5973 16.5625 12.3542V10.5245C16.5508 10.4966 16.534 10.4711 16.513 10.4493C16.4214 10.3518 16.3118 10.2727 16.1903 10.2165C15.424 9.84067 14.7292 9.05783 14.7292 7.77083C14.7292 6.48383 15.4231 5.70192 16.1912 5.32517C16.3361 5.25367 16.4479 5.1675 16.513 5.09233C16.534 5.07057 16.5508 5.04508 16.5625 5.01717V3.1875C16.5625 2.94439 16.4659 2.71123 16.294 2.53932C16.1221 2.36741 15.8889 2.27083 15.6458 2.27083H12.8958V4.10417C12.8958 4.34728 12.7993 4.58044 12.6273 4.75235C12.4554 4.92426 12.2223 5.02083 11.9792 5.02083C11.7361 5.02083 11.5029 4.92426 11.331 4.75235C11.1591 4.58044 11.0625 4.34728 11.0625 4.10417V2.27083H2.8125ZM0.0625 3.1875C0.0625 2.45815 0.352231 1.75868 0.867956 1.24296C1.38368 0.727231 2.08315 0.4375 2.8125 0.4375H15.6458C16.3752 0.4375 17.0747 0.727231 17.5904 1.24296C18.1061 1.75868 18.3958 2.45815 18.3958 3.1875V5.02083C18.3958 6.07042 17.5433 6.70292 16.9988 6.97058C16.8779 7.02621 16.774 7.11326 16.6982 7.22267C16.6322 7.32167 16.5625 7.48667 16.5625 7.77083C16.5625 8.055 16.6322 8.22 16.6982 8.319C16.774 8.42841 16.8779 8.51546 16.9988 8.57108C17.5433 8.83875 18.3958 9.47125 18.3958 10.5208V12.3542C18.3958 13.0835 18.1061 13.783 17.5904 14.2987C17.0747 14.8144 16.3752 15.1042 15.6458 15.1042H2.8125C2.08315 15.1042 1.38368 14.8144 0.867956 14.2987C0.352231 13.783 0.0625 13.0835 0.0625 12.3542V10.5208C0.0625 9.47125 0.915 8.83875 1.4595 8.57108C1.58046 8.51546 1.68429 8.42841 1.76017 8.319C1.82617 8.22 1.89583 8.055 1.89583 7.77083C1.89583 7.48667 1.82617 7.32167 1.76017 7.22267C1.68429 7.11326 1.58046 7.02621 1.4595 6.97058C0.915 6.70292 0.0625 6.07042 0.0625 5.02083V3.1875ZM11.9792 5.9375C12.2223 5.9375 12.4554 6.03408 12.6273 6.20599C12.7993 6.37789 12.8958 6.61105 12.8958 6.85417V8.6875C12.8958 8.93062 12.7993 9.16377 12.6273 9.33568C12.4554 9.50759 12.2223 9.60417 11.9792 9.60417C11.7361 9.60417 11.5029 9.50759 11.331 9.33568C11.1591 9.16377 11.0625 8.93062 11.0625 8.6875V6.85417C11.0625 6.61105 11.1591 6.37789 11.331 6.20599C11.5029 6.03408 11.7361 5.9375 11.9792 5.9375Z" fill="#E98024"/>
</svg>
