<svg width="24" height="24" viewBox="0 0 24 24" fill="none" xmlns="http://www.w3.org/2000/svg">
<path d="M12 0.625C5.728 0.625 0.625 5.728 0.625 12C0.625 18.272 5.728 23.375 12 23.375C14.0729 23.375 16.0101 22.8089 17.6857 21.8368L16.4249 20.54C15.0588 21.2528 13.5408 21.625 12 21.625C6.69312 21.625 2.375 17.3069 2.375 12C2.375 6.69312 6.69312 2.375 12 2.375C17.3069 2.375 21.625 6.69312 21.625 12C21.625 12.0227 21.6215 12.0446 21.6215 12.0665C22.2381 12.1625 22.8247 12.398 23.3365 12.7551C23.3522 12.504 23.375 12.2555 23.375 12C23.375 5.728 18.272 0.625 12 0.625ZM8.0625 8.5C7.7144 8.5 7.38056 8.63828 7.13442 8.88442C6.88828 9.13056 6.75 9.4644 6.75 9.8125C6.75 10.1606 6.88828 10.4944 7.13442 10.7406C7.38056 10.9867 7.7144 11.125 8.0625 11.125C8.4106 11.125 8.74444 10.9867 8.99058 10.7406C9.23672 10.4944 9.375 10.1606 9.375 9.8125C9.375 9.4644 9.23672 9.13056 8.99058 8.88442C8.74444 8.63828 8.4106 8.5 8.0625 8.5ZM15.5 8.5C13.6678 8.5 12.3412 9.55612 12.3412 9.55612L13.4088 10.9439C13.4088 10.9439 14.3555 10.25 15.5009 10.25C16.6462 10.25 17.5921 10.9439 17.5921 10.9439L18.6596 9.55612C18.657 9.55612 17.3314 8.5 15.5 8.5ZM11.125 12.882V14.1857C11.9143 14.1857 12.4174 14.5489 12.4174 14.737C12.4174 14.926 11.9169 15.2847 11.1337 15.2882H11.125V16.5938H11.1337C11.9169 16.5964 12.4174 16.956 12.4174 17.1441C12.4174 17.3331 11.9134 17.6954 11.125 17.6954V19C12.5854 19 13.7299 18.1845 13.7299 17.1441C13.7299 16.6786 13.4919 16.2639 13.1078 15.941C13.4919 15.6181 13.729 15.2034 13.729 14.7379C13.729 13.6966 12.5854 12.882 11.125 12.882ZM17.9062 13.75C16.5675 13.75 15.5 14.8787 15.5 16.2C15.5 16.9691 15.9419 17.5344 16.2613 17.8625L19.4375 21.1263L22.6225 17.8625C22.9419 17.5352 23.375 17.0829 23.375 16.2C23.375 14.8787 22.3075 13.75 20.9688 13.75C20.33 13.75 19.805 13.9688 19.4375 14.1875C19.07 13.9688 18.545 13.75 17.9062 13.75ZM17.9062 15.5C18.1154 15.5 18.3289 15.5647 18.5424 15.6916L19.4375 16.2254L20.3326 15.6916C20.5233 15.5712 20.7432 15.505 20.9688 15.5C21.3188 15.5 21.625 15.8281 21.625 16.2C21.625 16.3645 21.618 16.3864 21.3704 16.6401L19.4393 18.6185L17.5142 16.641C17.4163 16.5404 17.25 16.3479 17.25 16.2009C17.25 15.8281 17.5562 15.5 17.9062 15.5Z" fill="black"/>
</svg>
